# xmcd
#
# Track frame offsets: 
#        150
#        19651
#        36805
#        57953
#        80582
#        109246
#        128052
#        144080
#        162779
#        184508
#
# Disc length: 2796 seconds
#
# Revision: 0
# Processed by: cddbd v1.5.2PL0 Copyright (c) Steve Scherf et al.
# Submitted via: ExactAudioCopy v1.3
#
DISCID=770aea0a
DTITLE=Jon Cleary - Dyna-Mite
DYEAR=2018
DGENRE=Funk
TTITLE0=Dyna-Mite
TTITLE1=Skin In The Game
TTITLE2=Unputdownable
TTITLE3=Big Greasy
TTITLE4=21st Century Gypsy Singing Lover Man
TTITLE5=Best Ain't Good Enuff
TTITLE6=Hit, Git, Quit, Split
TTITLE7=I'm Not Mad
TTITLE8=Frenchmen Street Blues
TTITLE9=All Good Things
EXTD=
EXTT0=
EXTT1=
EXTT2=
EXTT3=
EXTT4=
EXTT5=
EXTT6=
EXTT7=
EXTT8=
EXTT9=
PLAYORDER=
